<svg width="791" height="645" viewBox="0 0 791 645" fill="none" xmlns="http://www.w3.org/2000/svg">
<path d="M440 506s0 0 0 0m0 0c1 2 125 162 15 133-92-24-733-274-235-322 0 0-58-39-115-85m335 274c1 1 108 139 171 13 64-127-9-38-68-61l247-159-163 50 37-88-444-108 53-46M105 232l-24-21m24 21c-8 29-12 50-12 50s-4-33-12-71m24 21c21-75 64-209 115-225 70-23 88 45 53 100M81 211C24 161-22 109 16 92c31-14 53 60 65 119zm192-104c-23 36 81 0 81 0L389 7 273 107z" stroke="url(#paint0_linear)" stroke-width="3"/>
<defs>
  <linearGradient id="paint0_linear" x1="522.2" y1="150.1" x2="190" y2="465.4" gradientUnits="userSpaceOnUse">
    <stop stop-color="#22C993"/>
    <stop offset="1" stop-color="#791ED5"/>
  </linearGradient>
</defs>
</svg>
