<?xml version="1.0" encoding="UTF-8"?> <svg xmlns="http://www.w3.org/2000/svg" viewBox="0 0 865.26 499"> <defs> <style>.cls-1,.cls-3,.cls-7,.cls-8,.cls-9{fill:none;}.cls-1{stroke:#dedcff;}.cls-1,.cls-2,.cls-3,.cls-4,.cls-7,.cls-8,.cls-9{stroke-linecap:round;stroke-linejoin:round;stroke-width:3px;}.cls-2{fill:#fff;}.cls-2,.cls-3,.cls-4{stroke:#000;}.cls-5{fill:#007aff;}.cls-6{fill:#cacaca;}.cls-7{stroke:#fff;}.cls-8{stroke:#007aff;}.cls-9{stroke:#b3b3b3;}</style> </defs> <title>6Монтажная область 2 копия 3</title> <g id="Слой_3" data-name="Слой 3"> <path class="cls-1" d="M14.62,342.4C50.19,274.33,183.94,266,297.31,266H666.24c84.53,0,177.76,18.33,192.17,75,17.25,67.84-69.55,118.25-187.36,135C548,493.4,526.66,488,393.4,488c-247,0-204-62.19-269.8-66C45.93,417.5-8.56,386.76,14.62,342.4Z"></path> <rect class="cls-2" x="494.53" y="158" width="286.45" height="176" rx="11.4"></rect> <path class="cls-3" d="M777.5,350.46a5.3,5.3,0,0,1-2.44,4.49L659,429.35a32.46,32.46,0,0,1-17.54,5.15H374.52a2.9,2.9,0,0,1-2.93-2.75V414.37l405-79.18a.72.72,0,0,1,.86.71Z"></path> <path class="cls-2" d="M641.46,417.5H374.52a2.93,2.93,0,0,1-1.58-5.4l115.83-74.4a23.39,23.39,0,0,1,12.62-3.7H776.07a1.45,1.45,0,0,1,.78,2.66L659,412.35A32.46,32.46,0,0,1,641.46,417.5Z"></path> <rect class="cls-4" x="513.15" y="176.5" width="248.5" height="138"></rect> <path class="cls-5" d="M731.85,293.5H467.68a6.81,6.81,0,0,1-6.81-6.8V144.33c0-3.75,3.05-18.55,6.81-18.55H731.85c3.76,0,6.8,14.8,6.8,18.55V286.7A6.8,6.8,0,0,1,731.85,293.5Z"></path> <path class="cls-6" d="M738.65,144.33v-14.7a6.79,6.79,0,0,0-6.8-6.8H467.68a6.8,6.8,0,0,0-6.81,6.8v14.7Z"></path> <circle cx="472.73" cy="134.67" r="2.83"></circle> <circle cx="486.16" cy="134.67" r="2.83"></circle> <circle cx="499.59" cy="134.67" r="2.83"></circle> <circle class="cls-7" cx="486.16" cy="162.96" r="6.83"></circle> <line class="cls-7" x1="630.32" y1="162.96" x2="650.65" y2="162.96"></line> <line class="cls-7" x1="666.82" y1="162.96" x2="687.15" y2="162.96"></line> <line class="cls-7" x1="703.32" y1="162.96" x2="723.65" y2="162.96"></line> <line class="cls-7" x1="480.73" y1="213" x2="583.65" y2="213"></line> <line class="cls-7" x1="480.73" y1="229.67" x2="555.98" y2="229.67"></line> <path class="cls-8" d="M204.43,224.33s-1-109.16,79.89-162.39c83-54.62,145.76-42.72,160.21-19.13S423,88.08,405,66.4,429.33-12,513.67,11.69c45,12.65,66.19,41.1,78.34,56.69"></path> <polyline class="cls-8" points="575.08 60.03 594.08 70.62 588.58 50.12"></polyline> <line class="cls-3" x1="658.41" y1="88.33" x2="679.24" y2="44.33"></line> <line class="cls-3" x1="673.74" y1="88.33" x2="694.41" y2="66.33"></line> <line class="cls-3" x1="118.65" y1="29.5" x2="236.65" y2="29.5"></line> <line class="cls-3" x1="118.65" y1="46" x2="196.15" y2="46"></line> <line class="cls-3" x1="204.98" y1="39.5" x2="204.98" y2="53.17"></line> <rect class="cls-3" x="231.44" y="80.65" width="135.26" height="84.73" transform="translate(-19.14 65.43) rotate(-12.1)"></rect> <rect class="cls-2" x="215.02" y="69.06" width="135.26" height="84.73" transform="translate(-17.08 61.73) rotate(-12.1)"></rect> <circle class="cls-9" cx="62.97" cy="212.49" r="19.33"></circle> <line class="cls-9" x1="76.64" y1="226.16" x2="91.79" y2="241.32"></line> <path class="cls-2" d="M125.65,214.33h135V325.51a85.33,85.33,0,0,1-15.35,48.82l-14.65,21h-135l14.47-20.58a85.29,85.29,0,0,0,15.53-49.08Z"></path> <path class="cls-9" d="M97.77,442.67l41-58.25a85.38,85.38,0,0,0,15.53-49.08V249.67h40v85.67a85.38,85.38,0,0,1-15.53,49.08L116.1,472.67"></path> <line class="cls-9" x1="154.32" y1="274.33" x2="194.32" y2="274.33"></line> <line class="cls-9" x1="154.32" y1="304" x2="194.32" y2="304"></line> <line class="cls-9" x1="152.93" y1="350.67" x2="192.93" y2="350.67"></line> <polygon class="cls-4" points="307.11 343.48 300.01 339.59 356.55 236.4 367.3 225.19 363.64 240.28 307.11 343.48"></polygon> <polygon class="cls-3" points="501.98 348.67 726.41 348.67 668.32 383.84 448.32 383.84 501.98 348.67"></polygon> <line class="cls-3" x1="485.44" y1="359.51" x2="657.98" y2="359.51"></line> <line class="cls-2" x1="497.65" y1="371.33" x2="599.76" y2="371.33"></line> <polyline class="cls-3" points="485.81 392.04 463.21 406.85 560.72 406.85"></polyline> <line class="cls-3" x1="551.98" y1="348.67" x2="498.32" y2="383.84"></line> <line class="cls-2" x1="522.32" y1="383.84" x2="575.98" y2="348.67"></line> <line class="cls-2" x1="621.4" y1="371.33" x2="655.98" y2="348.67"></line> <line class="cls-3" x1="236.1" y1="454.95" x2="196.35" y2="486"></line> <path class="cls-2" d="M254.67,160.75s2.33-48.1,37.51-53.24c21.57-3.16,32.51,5.69,40.79-10.5s12.4-15.66,12.4-15.66"></path> <ellipse class="cls-4" cx="263.15" cy="125.11" rx="14.44" ry="11.17" transform="translate(44.22 317.39) rotate(-66.72)"></ellipse> <path class="cls-2" d="M274,70s-33.18,21.54-53.42,74.33"></path> <line class="cls-9" x1="207.22" y1="261.32" x2="235.56" y2="261.32"></line> <line class="cls-9" x1="207.22" y1="288.32" x2="235.56" y2="288.32"></line> <line class="cls-9" x1="207.22" y1="328.32" x2="235.56" y2="328.32"></line> </g> </svg> 